<svg width="120" height="120" viewBox="0 0 120 120" fill="none" xmlns="http://www.w3.org/2000/svg">
<path d="M120 60C120 26.8629 93.1371 0 60 0C26.8629 0 0 26.8629 0 60C0 93.1371 26.8629 120 60 120C93.1371 120 120 93.1371 120 60Z" fill="white"/>
<path d="M93 49.47H92.9C93 48.77 93 48.17 93 47.47C93 37.57 84.9 29.47 75 29.47C67.1 29.47 60.5 34.47 58 41.57C57.7 41.57 53.3 41.47 53 41.47C45.5 41.47 39.4 47.37 39 54.77C43 49.17 49.6 45.47 57 45.47C69.1 45.47 79 55.37 79 67.47C79 68.17 79 68.77 78.9 69.47H93C98.5 69.47 103 64.97 103 59.47C103 53.97 98.5 49.47 93 49.47Z" fill="#BFC4CF"/>
<path d="M75 69.47H74.9C75 68.77 75 68.17 75 67.47C75 57.57 66.9 49.47 57 49.47C49.1 49.47 42.5 54.47 40 61.57C39.7 61.57 35.3 61.47 35 61.47C27.3 61.47 21 67.77 21 75.47C21 83.17 27.3 89.47 35 89.47H75C80.5 89.47 85 84.97 85 79.47C85 73.97 80.5 69.47 75 69.47Z" fill="#0052FF"/>
<path d="M40.2 61.07C42.4 66.07 47.3 69.47 53 69.47H74.9C75 68.77 75 68.17 75 67.47C75 57.57 66.9 49.47 57 49.47C49.3 49.47 42.8 54.27 40.2 61.07Z" fill="#0A0B0D"/>
</svg>
