<svg width="120" height="120" viewBox="0 0 120 120" fill="none" xmlns="http://www.w3.org/2000/svg">
<path d="M120 60C120 26.8629 93.1371 0 60 0C26.8629 0 0 26.8629 0 60C0 93.1371 26.8629 120 60 120C93.1371 120 120 93.1371 120 60Z" fill="white"/>
<path d="M69.13 76.01C55.34 76.01 44.12 64.79 44.12 51C44.12 50.39 44.15 49.79 44.19 49.19C36 52.06 30.11 59.83 30.11 69C30.11 80.6 39.52 90.01 51.12 90.01C60.29 90.01 68.07 84.12 70.93 75.93C70.33 75.97 69.73 76 69.12 76L69.13 76.01Z" fill="#BFC4CF"/>
<path d="M48.12 51C48.12 62.6 57.53 72.01 69.13 72.01C80.73 72.01 90.14 62.6 90.14 51C90.14 39.4 80.73 29.99 69.13 29.99C57.53 29.99 48.12 39.4 48.12 51Z" fill="#0052FF"/>
<path d="M51.13 48C50.18 48 49.25 48.08 48.34 48.21C48.22 49.13 48.13 50.05 48.13 51C48.13 62.6 57.54 72.01 69.14 72.01C70.09 72.01 71.02 71.93 71.93 71.8C72.05 70.88 72.14 69.96 72.14 69.01C72.14 57.41 62.73 48 51.13 48Z" fill="#0A0B0D"/>
</svg>
