<svg width="120" height="120" viewBox="0 0 120 120" fill="none" xmlns="http://www.w3.org/2000/svg">
<path d="M120 60C120 26.8629 93.1371 0 60 0C26.8629 0 0 26.8629 0 60C0 93.1371 26.8629 120 60 120C93.1371 120 120 93.1371 120 60Z" fill="white"/>
<path d="M80 72V52L56 36L32 52V72L56 88L80 72Z" fill="#0052FF"/>
<path d="M56 36V88L80 72V52L56 36Z" fill="#0A0B0D"/>
<path d="M90 26H56V31.19L82.22 48.67L84 49.86V74.14L82.22 75.33L56 92.81V98H90C91.1 98 92 97.1 92 96V28C92 26.9 91.1 26 90 26Z" fill="#CED2DB"/>
</svg>
