<svg width="120" height="120" viewBox="0 0 120 120" fill="none" xmlns="http://www.w3.org/2000/svg">
<path d="M60 120C26.9 120 0 93.1 0 60C0 26.9 26.9 0 60 0C93.1 0 120 26.9 120 60C120 93.1 93.1 120 60 120Z" fill="white"/>
<path d="M76.5 86.8V53.2L44.9 36.4C44.2 36.1 43.5 36.5 43.5 37.3V70.9L75.1 87.7C75.7 88 76.5 87.5 76.5 86.8Z" fill="#0052FF"/>
<path d="M92 43.8L61.4 27.6C60.7 27.3 60 27.7 60 28.5V39.9L78.4 49.7L80.5 50.8V53.2V73L91.6 78.9C92.3 79.2 93 78.8 93 78V45.6C93 44.8 92.6 44.2 92 43.8Z" fill="#BFC4CF"/>
<path d="M60 62L76.5 70.8V53.2L60 44.4V62Z" fill="#0A0B0D"/>
<path d="M27 46V78.4C27 79.1 27.4 79.8 28 80.1L58.5 96.4C59.2 96.7 59.9 96.3 59.9 95.5V62L28.4 45.2C27.8 44.8 27 45.3 27 46Z" fill="#BFC4CF"/>
<path d="M43.5 70.8L60 79.5999V62L43.5 53.2V70.8Z" fill="white"/>
</svg>
