<svg width="120" height="120" viewBox="0 0 120 120" fill="none" xmlns="http://www.w3.org/2000/svg">
<path d="M60 120C26.9 120 0 93.1 0 60C0 26.9 26.9 0 60 0C93.1 0 120 26.9 120 60C120 93.1 93.1 120 60 120Z" fill="white"/>
<path d="M52.6889 34.5806L34.5811 52.6885L67.3044 85.4118L85.4122 67.304L52.6889 34.5806Z" fill="#BFC4CF"/>
<path d="M89.1654 30.8335H74.6404L30.832 89.1668H45.357L89.1654 30.8335Z" fill="#0052FF"/>
<path d="M43.6362 56.4418C50.7078 56.4418 56.4404 50.7092 56.4404 43.6377C56.4404 36.5661 50.7078 30.8335 43.6362 30.8335C36.5647 30.8335 30.832 36.5661 30.832 43.6377C30.832 50.7092 36.5647 56.4418 43.6362 56.4418Z" fill="#0A0B0D"/>
<path d="M52.6971 34.5863C47.6999 29.5891 39.5915 29.5891 34.5846 34.5863C29.5874 39.5835 29.5874 47.6919 34.5846 52.6988L52.6971 34.5863Z" fill="#0052FF"/>
<path d="M76.361 89.1669C83.4326 89.1669 89.1652 83.4343 89.1652 76.3628C89.1652 69.2912 83.4326 63.5586 76.361 63.5586C69.2895 63.5586 63.5569 69.2912 63.5569 76.3628C63.5569 83.4343 69.2895 89.1669 76.361 89.1669Z" fill="#0A0B0D"/>
<path d="M67.3 85.4143C72.2973 90.4115 80.4056 90.4115 85.4125 85.4143C90.4098 80.417 90.4098 72.3087 85.4125 67.3018L67.3 85.4143Z" fill="#0052FF"/>
<path d="M71.9183 53.8072L56.3822 74.4863L48.0891 66.1933L63.6155 45.5044L71.9183 53.8072Z" fill="#0A0B0D"/>
<path d="M71.9183 53.8072L56.3822 74.4863L48.0891 66.1933L63.6155 45.5044L71.9183 53.8072Z" fill="#0A0B0D"/>
</svg>
