<svg width="120" height="120" viewBox="0 0 120 120" fill="none" xmlns="http://www.w3.org/2000/svg">
<path d="M120 60C120 26.8629 93.1371 0 60 0C26.8629 0 0 26.8629 0 60C0 93.1371 26.8629 120 60 120C93.1371 120 120 93.1371 120 60Z" fill="white"/>
<path fill-rule="evenodd" clip-rule="evenodd" d="M62.73 79.13L79.13 62.73L91.44 75.04C92.19 75.79 92.19 77.02 91.44 77.77L77.76 91.44C77.01 92.19 75.78 92.19 75.03 91.44L62.73 79.13V79.13Z" fill="#BFC4CF"/>
<path fill-rule="evenodd" clip-rule="evenodd" d="M91.43 42.23L77.76 28.56C77.01 27.81 75.79 27.81 75.04 28.56L62.73 40.87L79.13 57.27L91.43 44.96C92.18 44.21 92.18 42.98 91.43 42.23V42.23ZM76.4 60L60 43.6L76.4 60Z" fill="#BFC4CF"/>
<path d="M60 43.6L43.6 60L60 76.4L76.4 60L60 43.6Z" fill="#0A0B0D"/>
<path d="M42.24 28.56L28.56 42.24C27.81 42.99 27.81 44.22 28.56 44.97L43.6 60L60 43.6L44.96 28.56C44.21 27.81 42.99 27.81 42.24 28.56Z" fill="#0052FF"/>
<path d="M43.6 60L28.56 75.04C27.81 75.79 27.81 77.02 28.56 77.77L42.23 91.44C42.98 92.19 44.21 92.19 44.96 91.44L60 76.4L43.6 60V60Z" fill="#0052FF"/>
</svg>
