<svg width="120" height="120" viewBox="0 0 120 120" fill="none" xmlns="http://www.w3.org/2000/svg">
<path d="M120 60C120 26.8629 93.1371 0 60 0C26.8629 0 0 26.8629 0 60C0 93.1371 26.8629 120 60 120C93.1371 120 120 93.1371 120 60Z" fill="white"/>
<path d="M60 84C73.2548 84 84 73.2548 84 60C84 46.7452 73.2548 36 60 36C46.7452 36 36 46.7452 36 60C36 73.2548 46.7452 84 60 84Z" fill="#0052FF"/>
<path d="M60 32V21.53C60 20.69 60.69 20 61.53 20.03C82.91 20.83 100 38.42 100 60C100 81.58 82.91 99.17 61.53 99.97C60.69 100 60 99.31 60 98.47V88C75.44 88 88 75.44 88 60C88 44.56 75.44 32 60 32Z" fill="#BFC4CF"/>
<path d="M60 36V84C73.25 84 84 73.25 84 60C84 46.75 73.25 36 60 36Z" fill="#0A0B0D"/>
<path d="M60 50L62.62 57.38L70 60L62.62 62.62L60 70L57.38 62.62L50 60L57.38 57.38L60 50Z" fill="white"/>
</svg>
