<svg width="120" height="120" viewBox="0 0 120 120" fill="none" xmlns="http://www.w3.org/2000/svg">
<path d="M120 60C120 26.8629 93.1371 0 60 0C26.8629 0 0 26.8629 0 60C0 93.1371 26.8629 120 60 120C93.1371 120 120 93.1371 120 60Z" fill="white"/>
<path d="M69.765 88.765L41.175 60.175L69.765 31.585C70.545 30.805 71.8151 30.805 72.5951 31.585L99.765 58.755C100.545 59.535 100.545 60.805 99.765 61.585L72.5951 88.755C71.8151 89.535 70.545 89.535 69.765 88.755V88.765Z" fill="#0052FF"/>
<path d="M38.345 63.005L35.5151 60.175L38.345 57.345L56.845 38.845L49.585 31.585C48.805 30.805 47.535 30.805 46.755 31.585L19.585 58.755C18.805 59.535 18.805 60.805 19.585 61.585L46.755 88.755C47.535 89.535 48.805 89.535 49.585 88.755L56.845 81.495L38.345 62.995V63.005Z" fill="#BFC4CF"/>
<path d="M59.6774 41.6817L41.1795 60.1796L59.6774 78.6775L78.1753 60.1796L59.6774 41.6817Z" fill="#0A0B0D"/>
</svg>
