<svg width="120" height="120" viewBox="0 0 120 120" fill="none" xmlns="http://www.w3.org/2000/svg">
<path d="M120 60C120 26.8629 93.1371 0 60 0C26.8629 0 0 26.8629 0 60C0 93.1371 26.8629 120 60 120C93.1371 120 120 93.1371 120 60Z" fill="white"/>
<path d="M87.87 29H40.01L76.24 44.55C78.44 45.5 79.87 47.66 79.87 50.06V68.99H87.87C88.97 68.99 89.87 68.09 89.87 66.99V31C89.87 29.9 88.97 29 87.87 29V29Z" fill="#BFC4CF"/>
<path d="M29.87 69L72.37 87.48C74.02 88.2 75.87 86.99 75.87 85.19V69H29.87Z" fill="#0052FF"/>
<path d="M72.84 47.45L29.87 29V69H75.87V52.04C75.87 50.04 74.68 48.23 72.84 47.45Z" fill="#0A0B0D"/>
</svg>
